<svg xmlns="http://www.w3.org/2000/svg" xmlns:xlink="http://www.w3.org/1999/xlink" viewBox="0 0 832.69 613.37"><defs><style>.cls-1{fill:url(#linear-gradient);}.cls-2{fill:url(#linear-gradient-2);}.cls-3{fill:url(#linear-gradient-3);}</style><linearGradient id="linear-gradient" x1="109.18" y1="440.91" x2="109.18" y2="182.42" gradientUnits="userSpaceOnUse"><stop offset="0" stop-color="#131316"/><stop offset="0.5" stop-color="#2c2d2f"/><stop offset="1" stop-color="#131316"/></linearGradient><linearGradient id="linear-gradient-2" x1="199.99" y1="612.18" x2="785.57" y2="38.5" gradientUnits="userSpaceOnUse"><stop offset="0.03" stop-color="#303c59"/><stop offset="0.13" stop-color="#4b5d8b"/><stop offset="0.28" stop-color="#495a87"/><stop offset="0.44" stop-color="#42527a"/><stop offset="0.61" stop-color="#364364"/><stop offset="0.77" stop-color="#273047"/><stop offset="0.92" stop-color="#151a26"/></linearGradient><linearGradient id="linear-gradient-3" x1="834.59" y1="213.16" x2="2.46" y2="194.71" gradientUnits="userSpaceOnUse"><stop offset="0" stop-color="#3d3159"/><stop offset="0.03" stop-color="#443764"/><stop offset="0.09" stop-color="#53427a"/><stop offset="0.16" stop-color="#5c4987"/><stop offset="0.22" stop-color="#5f4b8b"/><stop offset="0.36" stop-color="#5b4785"/><stop offset="0.55" stop-color="#503d75"/><stop offset="0.76" stop-color="#3d2b5b"/><stop offset="0.99" stop-color="#241336"/><stop offset="1" stop-color="#213"/></linearGradient></defs><title>BlackIris_Play_Ribbon_Logo</title><g id="Layer_2" data-name="Layer 2"><g id="Play_Ribbon_Mockup_v1-1_Image" data-name="Play_Ribbon_Mockup_v1-1 Image"><path class="cls-1" d="M217.06,208.45c-145.49-39-142.59-26.34-187-12.19C18.36,200,0,222.26,0,222.26l5.58,176s18.51,30.52,61.71,39.95c47.12,10.3,32.48-9.49,151.07-45"/><path class="cls-2" d="M532.09,303.76l285.38,95.93c3.38.86,4.84,1.6,6.39,3.14l-.11,2.24c-.85,2.27-7.36,6.22-10.15,7.18,0,0-563,195.55-576.44,199.71-6.31,1.95-21.56,1.88-32.07-.2-10.79-2.14-22.09-14.9-24.4-17.37L5.58,398.24s9.17,25,62,25"/><path class="cls-3" d="M229.67,0c-21.82,1.73-41.39,5.83-57,24.54L0,222.26s15.59-25.5,67.59-27c68-2,678.61,184.11,743.09,203.53,15.66,4.72,2.4,13.65,2.4,13.65,1.19-.9,13.26-1.93,13.77-18.21l5.84-178.47c0-12.75-2.85-15.25-15-19.2"/></g></g></svg>