<svg color="#1A2137" xmlns="http://www.w3.org/2000/svg" xmlns:xlink="http://www.w3.org/1999/xlink" viewBox="0 0 832.69 613.37"><g><path fill="currentColor" d="M217.06,208.45c-145.49-39-142.59-26.34-187-12.19C18.36,200,0,222.26,0,222.26l5.58,176s18.51,30.52,61.71,39.95c47.12,10.3,32.48-9.49,151.07-45"></path><path fill="currentColor" d="M532.09,303.76l285.38,95.93c3.38.86,4.84,1.6,6.39,3.14l-.11,2.24c-.85,2.27-7.36,6.22-10.15,7.18,0,0-563,195.55-576.44,199.71-6.31,1.95-21.56,1.88-32.07-.2-10.79-2.14-22.09-14.9-24.4-17.37L5.58,398.24s9.17,25,62,25"></path><path fill="currentColor" d="M229.67,0c-21.82,1.73-41.39,5.83-57,24.54L0,222.26s15.59-25.5,67.59-27c68-2,678.61,184.11,743.09,203.53,15.66,4.72,2.4,13.65,2.4,13.65,1.19-.9,13.26-1.93,13.77-18.21l5.84-178.47c0-12.75-2.85-15.25-15-19.2"></path></g></svg>