<svg xmlns="http://www.w3.org/2000/svg" xmlns:xlink="http://www.w3.org/1999/xlink" viewBox="0 0 832.69 613.37"><defs><linearGradient id="w1" x1="109.18" y1="440.91" x2="109.18" y2="182.42" gradientUnits="userSpaceOnUse"><stop offset="0" stop-color="#b6b7b7"></stop><stop offset="0.5" stop-color="#cfd0d2"></stop><stop offset="0.99" stop-color="#b6b7b7"></stop></linearGradient><linearGradient id="w2" x1="199.99" y1="612.18" x2="785.57" y2="38.5" gradientUnits="userSpaceOnUse"><stop offset="0.03" stop-color="#c3c3c5"></stop><stop offset="0.13" stop-color="#f5f6f8"></stop><stop offset="0.29" stop-color="#f1f2f4"></stop><stop offset="0.46" stop-color="#e4e5e7"></stop><stop offset="0.64" stop-color="#cfd0d1"></stop><stop offset="0.82" stop-color="#b2b3b4"></stop><stop offset="0.92" stop-color="#9d9e9f"></stop></linearGradient><linearGradient id="w3" x1="834.59" y1="213.16" x2="2.46" y2="194.71" gradientUnits="userSpaceOnUse"><stop offset="0" stop-color="#c3c3c5"></stop><stop offset="0.03" stop-color="#cfcfd1"></stop><stop offset="0.09" stop-color="#e4e5e7"></stop><stop offset="0.16" stop-color="#f1f2f4"></stop><stop offset="0.22" stop-color="#f5f6f8"></stop><stop offset="0.36" stop-color="#eff0f2"></stop><stop offset="0.55" stop-color="#dfe0e2"></stop><stop offset="0.75" stop-color="#c5c6c8"></stop><stop offset="0.98" stop-color="#a1a1a3"></stop><stop offset="1" stop-color="#9d9d9f"></stop></linearGradient></defs><g><path fill="url(#w1)" d="M217.06,208.45c-145.49-39-142.59-26.34-187-12.19C18.36,200,0,222.26,0,222.26l5.58,176s18.51,30.52,61.71,39.95c47.12,10.3,32.48-9.49,151.07-45"></path><path fill="url(#w2)" d="M532.09,303.76l285.38,95.93c3.38.86,4.84,1.6,6.39,3.14l-.11,2.24c-.85,2.27-7.36,6.22-10.15,7.18,0,0-563,195.55-576.44,199.71-6.31,1.95-21.56,1.88-32.07-.2-10.79-2.14-22.09-14.9-24.4-17.37L5.58,398.24s9.17,25,62,25"></path><path fill="url(#w3)" d="M229.67,0c-21.82,1.73-41.39,5.83-57,24.54L0,222.26s15.59-25.5,67.59-27c68-2,678.61,184.11,743.09,203.53,15.66,4.72,2.4,13.65,2.4,13.65,1.19-.9,13.26-1.93,13.77-18.21l5.84-178.47c0-12.75-2.85-15.25-15-19.2"></path></g></svg>